<svg preserveAspectRatio="none" width="100%" height="100%" overflow="visible" style="display: block;" viewBox="0 0 21.25 21.25" fill="none" xmlns="http://www.w3.org/2000/svg">
<g id="Italy">
<path d="M0 10.6261C0 15.2657 2.975 19.1969 7.08333 20.649V0.60319C2.975 2.05527 0 5.98652 0 10.6261Z" fill="#59B300"/>
<path d="M21.25 10.6261C21.25 5.98652 18.275 2.05527 14.1667 0.60319V20.649C18.3104 19.1969 21.25 15.2657 21.25 10.6261Z" fill="#FF0019"/>
<path d="M7.08333 20.6479C8.18125 21.0375 9.38542 21.25 10.625 21.25C11.8646 21.25 13.0687 21.0375 14.1667 20.6479V0.602083C13.0687 0.2125 11.8646 0 10.625 0C9.38542 0 8.18125 0.2125 7.08333 0.602083V20.6479Z" fill="var(--fill-0, white)"/>
</g>
</svg>
