<svg preserveAspectRatio="none" width="100%" height="100%" overflow="visible" style="display: block;" viewBox="0 0 17.059 14" fill="none" xmlns="http://www.w3.org/2000/svg">
<g id="icon">
<path id="Vector" d="M5.50211 9.80005C6.90475 9.88241 7.97593 11.0872 7.89358 12.4899C7.86608 12.9583 7.46541 13.3145 6.99698 13.287L1.06882 12.939C0.600386 12.9115 0.244156 12.5108 0.271658 12.0424C0.354011 10.6397 1.55882 9.56853 2.96147 9.65089L5.50211 9.80005ZM15.3647 1.03132C16.299 1.08617 17.0139 1.89031 16.9591 2.82452L16.5116 10.4464C16.4601 11.3224 15.7508 12.0058 14.8908 12.0429L14.7183 12.0408L9.13158 11.7128C9.03421 11.0644 8.77183 10.4674 8.3815 9.96911L9.73651 10.0487L9.78623 9.20179C9.81374 8.73336 10.2144 8.37713 10.6828 8.40463L13.2235 8.5538C13.6919 8.5813 14.0481 8.98197 14.0206 9.4504L13.9709 10.2973L14.8178 10.347L15.2653 2.72508L5.94961 2.17813L5.86058 3.69458C5.47822 3.51279 5.05461 3.40028 4.60471 3.37387C4.4618 3.36548 4.31842 3.36503 4.17971 3.37547L4.25585 2.07869C4.3107 1.14447 5.11484 0.42952 6.04906 0.48437L15.3647 1.03132ZM4.28151 8.87859C3.11176 8.80991 2.21994 7.80684 2.28862 6.63708C2.35729 5.46733 3.36037 4.57551 4.53012 4.64419C5.69988 4.71287 6.5917 5.71594 6.52302 6.8857C6.45434 8.05545 5.45126 8.94727 4.28151 8.87859Z" fill="var(--fill-0, #151515)"/>
</g>
</svg>
