<svg preserveAspectRatio="none" width="100%" height="100%" overflow="visible" style="display: block;" viewBox="0 0 16 21.3333" fill="none" xmlns="http://www.w3.org/2000/svg">
<g id="icon">
<path id="Vector" d="M12.3336 2.04473C12.5395 2.00852 12.7446 2.1078 12.8444 2.29022L13.4593 3.42489L14.7358 3.61573C14.9414 3.64727 15.1047 3.8062 15.1409 4.01209C15.1771 4.21799 15.0778 4.4231 14.8953 4.52285L13.7604 5.13769L13.5695 6.41405C13.5379 6.61955 13.3789 6.78285 13.173 6.81906C12.9671 6.85527 12.7619 6.75598 12.6622 6.57357L12.0473 5.43889L10.7707 5.24806C10.5652 5.21652 10.4019 5.05759 10.3657 4.85169C10.3295 4.6458 10.4288 4.44069 10.6112 4.34094L11.7461 3.7261L11.9371 2.44974C11.9686 2.24424 12.1276 2.08094 12.3336 2.04473ZM8.19505 6.26079C8.50254 5.8222 9.10839 5.71568 9.54704 6.02308L12.3544 7.99044C12.793 8.29784 12.8995 8.90359 12.592 9.34218L12.3239 9.72463C12.6751 10.3396 12.9278 11.0243 13.0579 11.7643C13.6607 15.1929 11.3706 18.4595 7.94138 19.0624C4.51216 19.6653 1.2446 17.3728 0.641774 13.9443C0.0389497 10.5157 2.32909 7.2491 5.75831 6.64616C6.49548 6.51655 7.22836 6.51997 7.92693 6.64324L8.19505 6.26079ZM3.98444 13.3566C3.70637 11.7751 4.76412 10.2663 6.34592 9.98819C6.74286 9.9184 7.00606 9.54297 6.93628 9.1461C6.86651 8.74924 6.49102 8.4861 6.09408 8.55589C3.72139 8.97307 2.13477 11.2362 2.55187 13.6084C2.62165 14.0053 2.99713 14.2684 3.39407 14.1986C3.79101 14.1289 4.05422 13.7534 3.98444 13.3566Z" fill="var(--fill-0, #69493B)"/>
</g>
</svg>
