<svg preserveAspectRatio="none" width="100%" height="100%" overflow="visible" style="display: block;" viewBox="0 0 27 24" fill="none" xmlns="http://www.w3.org/2000/svg">
<path id="Vector" d="M4.84102 0C3.15879 0 1.73496 1.25357 1.49766 2.94107L0.0316405 13.35C0.0105468 13.5107 0 13.6714 0 13.8375V20.5714C0 22.4625 1.51348 24 3.375 24H23.625C25.4865 24 27 22.4625 27 20.5714V13.8375C27 13.6768 26.9895 13.5107 26.9684 13.35L25.5023 2.94107C25.265 1.25357 23.8412 0 22.159 0H4.84102ZM4.84102 3.42857H22.1643L23.6092 13.7143H20.4504C19.8123 13.7143 19.227 14.0786 18.9422 14.6625L18.1881 16.1946C17.9033 16.7732 17.318 17.1429 16.6799 17.1429H10.3307C9.69258 17.1429 9.10723 16.7786 8.82246 16.1946L8.06836 14.6625C7.78359 14.0839 7.19824 13.7143 6.56016 13.7143H3.39082L4.84102 3.42857Z" fill="var(--fill-0, #69493B)"/>
</svg>
