<svg preserveAspectRatio="none" width="100%" height="100%" overflow="visible" style="display: block;" viewBox="0 0 71 91" fill="none" xmlns="http://www.w3.org/2000/svg">
<g id="Biblioteche">
<circle id="principale" cx="54.5" cy="74.5" r="16.5" fill="var(--fill-0, white)"/>
<g id="Library" clip-path="url(#clip0_1810_1513)">
<path id="Vector" d="M7.36308 18.9264C7.36308 17.4761 8.54222 16.297 9.99253 16.297H12.622L17.8768 11.5681C18.6286 10.8943 19.7667 10.8943 20.5144 11.5681L25.7692 16.297H28.3987C29.849 16.297 31.0281 17.4761 31.0281 18.9264V29.4442C31.0281 30.8945 29.849 32.0736 28.3987 32.0736H9.99253C8.54222 32.0736 7.36308 30.8945 7.36308 29.4442V18.9264ZM16.5661 26.4861V30.1016H21.825V26.4861C21.825 25.5781 21.0896 24.8427 20.1816 24.8427H18.2095C17.3016 24.8427 16.5661 25.5781 16.5661 26.4861ZM11.9646 26.8148C12.3262 26.8148 12.622 26.5189 12.622 26.1574V24.8427C12.622 24.4811 12.3262 24.1853 11.9646 24.1853H10.6499C10.2883 24.1853 9.99253 24.4811 9.99253 24.8427V26.1574C9.99253 26.5189 10.2883 26.8148 10.6499 26.8148H11.9646ZM12.622 20.8985V19.5838C12.622 19.2222 12.3262 18.9264 11.9646 18.9264H10.6499C10.2883 18.9264 9.99253 19.2222 9.99253 19.5838V20.8985C9.99253 21.26 10.2883 21.5559 10.6499 21.5559H11.9646C12.3262 21.5559 12.622 21.26 12.622 20.8985ZM27.7413 26.8148C28.1028 26.8148 28.3987 26.5189 28.3987 26.1574V24.8427C28.3987 24.4811 28.1028 24.1853 27.7413 24.1853H26.4266C26.065 24.1853 25.7692 24.4811 25.7692 24.8427V26.1574C25.7692 26.5189 26.065 26.8148 26.4266 26.8148H27.7413ZM28.3987 20.8985V19.5838C28.3987 19.2222 28.1028 18.9264 27.7413 18.9264H26.4266C26.065 18.9264 25.7692 19.2222 25.7692 19.5838V20.8985C25.7692 21.26 26.065 21.5559 26.4266 21.5559H27.7413C28.1028 21.5559 28.3987 21.26 28.3987 20.8985ZM19.1956 21.5559C20.6459 21.5559 21.825 20.3767 21.825 18.9264C21.825 17.4761 20.6459 16.297 19.1956 16.297C17.7453 16.297 16.5661 17.4761 16.5661 18.9264C16.5661 20.3767 17.7453 21.5559 19.1956 21.5559Z" fill="var(--fill-0, #69493B)"/>
</g>
<g id="Library_2" clip-path="url(#clip1_1810_1513)">
<path id="Vector_2" d="M-0.000330461 56.9676C-0.000330461 55.5173 1.17881 54.3382 2.62912 54.3382H5.25856L10.5133 49.6093C11.2652 48.9355 12.4033 48.9355 13.151 49.6093L18.4058 54.3382H21.0352C22.4855 54.3382 23.6647 55.5173 23.6647 56.9676V67.4854C23.6647 68.9357 22.4855 70.1148 21.0352 70.1148H2.62912C1.17881 70.1148 -0.000330461 68.9357 -0.000330461 67.4854V56.9676ZM9.20273 64.5273V68.1428H14.4616V64.5273C14.4616 63.6193 13.7262 62.8839 12.8182 62.8839H10.8461C9.93816 62.8839 9.20273 63.6193 9.20273 64.5273ZM4.6012 64.8559C4.96275 64.8559 5.25856 64.5601 5.25856 64.1986V62.8839C5.25856 62.5223 4.96275 62.2265 4.6012 62.2265H3.28648C2.92493 62.2265 2.62912 62.5223 2.62912 62.8839V64.1986C2.62912 64.5601 2.92493 64.8559 3.28648 64.8559H4.6012ZM5.25856 58.9397V57.625C5.25856 57.2634 4.96275 56.9676 4.6012 56.9676H3.28648C2.92493 56.9676 2.62912 57.2634 2.62912 57.625V58.9397C2.62912 59.3012 2.92493 59.5971 3.28648 59.5971H4.6012C4.96275 59.5971 5.25856 59.3012 5.25856 58.9397ZM20.3779 64.8559C20.7394 64.8559 21.0352 64.5601 21.0352 64.1986V62.8839C21.0352 62.5223 20.7394 62.2265 20.3779 62.2265H19.0632C18.7016 62.2265 18.4058 62.5223 18.4058 62.8839V64.1986C18.4058 64.5601 18.7016 64.8559 19.0632 64.8559H20.3779ZM21.0352 58.9397V57.625C21.0352 57.2634 20.7394 56.9676 20.3779 56.9676H19.0632C18.7016 56.9676 18.4058 57.2634 18.4058 57.625V58.9397C18.4058 59.3012 18.7016 59.5971 19.0632 59.5971H20.3779C20.7394 59.5971 21.0352 59.3012 21.0352 58.9397ZM11.8322 59.5971C13.2825 59.5971 14.4616 58.4179 14.4616 56.9676C14.4616 55.5173 13.2825 54.3382 11.8322 54.3382C10.3819 54.3382 9.20273 55.5173 9.20273 56.9676C9.20273 58.4179 10.3819 59.5971 11.8322 59.5971Z" fill="var(--fill-0, #69493B)"/>
</g>
<g id="Library_3" clip-path="url(#clip2_1810_1513)">
<path id="Vector_3" d="M31.9036 36.1056C31.9036 34.6553 33.0828 33.4762 34.5331 33.4762H37.1625L42.4173 28.7473C43.1692 28.0735 44.3072 28.0735 45.055 28.7473L50.3098 33.4762H52.9392C54.3895 33.4762 55.5687 34.6553 55.5687 36.1056V46.6234C55.5687 48.0737 54.3895 49.2529 52.9392 49.2529H34.5331C33.0828 49.2529 31.9036 48.0737 31.9036 46.6234V36.1056ZM41.1067 43.6653V47.2808H46.3656V43.6653C46.3656 42.7573 45.6302 42.0219 44.7222 42.0219H42.7501C41.8421 42.0219 41.1067 42.7573 41.1067 43.6653ZM36.5052 43.994C36.8667 43.994 37.1625 43.6982 37.1625 43.3366V42.0219C37.1625 41.6603 36.8667 41.3645 36.5052 41.3645H35.1905C34.8289 41.3645 34.5331 41.6603 34.5331 42.0219V43.3366C34.5331 43.6982 34.8289 43.994 35.1905 43.994H36.5052ZM37.1625 38.0777V36.763C37.1625 36.4015 36.8667 36.1056 36.5052 36.1056H35.1905C34.8289 36.1056 34.5331 36.4015 34.5331 36.763V38.0777C34.5331 38.4393 34.8289 38.7351 35.1905 38.7351H36.5052C36.8667 38.7351 37.1625 38.4393 37.1625 38.0777ZM52.2819 43.994C52.6434 43.994 52.9392 43.6982 52.9392 43.3366V42.0219C52.9392 41.6603 52.6434 41.3645 52.2819 41.3645H50.9671C50.6056 41.3645 50.3098 41.6603 50.3098 42.0219V43.3366C50.3098 43.6982 50.6056 43.994 50.9671 43.994H52.2819ZM52.9392 38.0777V36.763C52.9392 36.4015 52.6434 36.1056 52.2819 36.1056H50.9671C50.6056 36.1056 50.3098 36.4015 50.3098 36.763V38.0777C50.3098 38.4393 50.6056 38.7351 50.9671 38.7351H52.2819C52.6434 38.7351 52.9392 38.4393 52.9392 38.0777ZM43.7362 38.7351C45.1865 38.7351 46.3656 37.5559 46.3656 36.1056C46.3656 34.6553 45.1865 33.4762 43.7362 33.4762C42.2859 33.4762 41.1067 34.6553 41.1067 36.1056C41.1067 37.5559 42.2859 38.7351 43.7362 38.7351Z" fill="var(--fill-0, #69493B)"/>
</g>
<g id="Library_4" clip-path="url(#clip3_1810_1513)">
<path id="Vector_4" d="M46.6305 7.88233C46.6305 6.43203 47.8096 5.25288 49.2599 5.25288H51.8894L57.1442 0.523988C57.896 -0.149807 59.0341 -0.149807 59.7818 0.523988L65.0366 5.25288H67.666C69.1164 5.25288 70.2955 6.43203 70.2955 7.88233V18.4001C70.2955 19.8504 69.1164 21.0296 67.666 21.0296H49.2599C47.8096 21.0296 46.6305 19.8504 46.6305 18.4001V7.88233ZM55.8335 15.442V19.0575H61.0924V15.442C61.0924 14.534 60.357 13.7986 59.449 13.7986H57.4769C56.569 13.7986 55.8335 14.534 55.8335 15.442ZM51.232 15.7707C51.5936 15.7707 51.8894 15.4749 51.8894 15.1133V13.7986C51.8894 13.437 51.5936 13.1412 51.232 13.1412H49.9173C49.5557 13.1412 49.2599 13.437 49.2599 13.7986V15.1133C49.2599 15.4749 49.5557 15.7707 49.9173 15.7707H51.232ZM51.8894 9.85441V8.53969C51.8894 8.17814 51.5936 7.88233 51.232 7.88233H49.9173C49.5557 7.88233 49.2599 8.17814 49.2599 8.53969V9.85441C49.2599 10.216 49.5557 10.5118 49.9173 10.5118H51.232C51.5936 10.5118 51.8894 10.216 51.8894 9.85441ZM67.0087 15.7707C67.3702 15.7707 67.666 15.4749 67.666 15.1133V13.7986C67.666 13.437 67.3702 13.1412 67.0087 13.1412H65.694C65.3324 13.1412 65.0366 13.437 65.0366 13.7986V15.1133C65.0366 15.4749 65.3324 15.7707 65.694 15.7707H67.0087ZM67.666 9.85441V8.53969C67.666 8.17814 67.3702 7.88233 67.0087 7.88233H65.694C65.3324 7.88233 65.0366 8.17814 65.0366 8.53969V9.85441C65.0366 10.216 65.3324 10.5118 65.694 10.5118H67.0087C67.3702 10.5118 67.666 10.216 67.666 9.85441ZM58.463 10.5118C59.9133 10.5118 61.0924 9.33263 61.0924 7.88233C61.0924 6.43203 59.9133 5.25288 58.463 5.25288C57.0127 5.25288 55.8335 6.43203 55.8335 7.88233C55.8335 9.33263 57.0127 10.5118 58.463 10.5118Z" fill="var(--fill-0, #69493B)"/>
</g>
</g>
<defs>
<clipPath id="clip0_1810_1513">
<rect width="23.665" height="21.0356" fill="white" transform="translate(7.36328 11.0449)"/>
</clipPath>
<clipPath id="clip1_1810_1513">
<rect width="23.665" height="21.0356" fill="white" transform="translate(0 49.084)"/>
</clipPath>
<clipPath id="clip2_1810_1513">
<rect width="23.665" height="21.0356" fill="white" transform="translate(31.9043 28.2227)"/>
</clipPath>
<clipPath id="clip3_1810_1513">
<rect width="23.665" height="21.0356" fill="white" transform="translate(46.6309)"/>
</clipPath>
</defs>
</svg>
