<svg preserveAspectRatio="none" width="100%" height="100%" overflow="visible" style="display: block;" viewBox="0 0 105.487 16.272" fill="none" xmlns="http://www.w3.org/2000/svg">
<g id="OPENLIB.">
<path d="M8.712 16.272C3.432 16.272 0 13.248 0 8.064C0 3.072 3.432 0 8.712 0C13.992 0 17.424 3.072 17.424 8.064C17.424 13.152 14.064 16.272 8.712 16.272ZM8.712 12.336C10.608 12.336 12.072 10.944 12.072 8.088C12.072 5.328 10.608 3.936 8.712 3.936C6.816 3.936 5.352 5.328 5.352 8.088C5.352 10.944 6.816 12.336 8.712 12.336Z" fill="var(--fill-0, #69493B)"/>
<path d="M18.9231 16.032V0.24H26.0991C30.5391 0.24 32.9151 2.136 32.9151 6C32.9151 9.576 31.0191 11.616 26.5551 11.616H24.0831V16.032H18.9231ZM24.0831 8.616H26.2671C27.5871 8.616 28.3311 7.968 28.3311 6.408C28.3311 4.944 27.5391 4.176 26.0751 4.176H24.0831V8.616Z" fill="var(--fill-0, #69493B)"/>
<path d="M34.2746 16.032V0.24H45.8906V4.176H39.4346V6.864H44.2586V9.336H39.4346V12.096H46.1066V16.032H34.2746Z" fill="var(--fill-0, #69493B)"/>
<path d="M47.5168 16.032V0.24H54.6928L59.1808 9.264H59.2288L59.0848 0.24H63.5248V16.032H57.0928L51.7888 5.4H51.7648L51.9328 16.032H47.5168Z" fill="var(--fill-0, #69493B)"/>
<path d="M65.3996 16.032V0.24H70.6076V12H76.8716V16.032H65.3996Z" fill="var(--fill-0, #69493B)"/>
<path d="M78.2691 16.032V0.24H83.4051V16.032H78.2691Z" fill="var(--fill-0, #69493B)"/>
<path d="M85.3684 16.032V0.24H92.6164C97.3204 0.24 99.0724 1.992 99.0724 4.368C99.0724 5.976 98.3764 7.32 96.6964 7.752V7.776C98.7124 8.16 99.6724 9.6 99.6724 11.376C99.6724 14.208 97.9444 16.032 93.0724 16.032H85.3684ZM90.5284 6.792H92.7844C93.9364 6.792 94.5844 6.312 94.5844 5.28C94.5844 4.248 93.9364 3.696 92.5924 3.696H90.5284V6.792ZM90.5284 12.576H92.9524C94.1284 12.576 94.7764 11.928 94.7764 10.8C94.7764 9.864 94.1284 9.264 92.8804 9.264H90.5284V12.576Z" fill="var(--fill-0, #69493B)"/>
<path d="M102.965 15.9695C101.604 15.9695 100.5 14.8657 100.5 13.5041C100.5 12.1424 101.604 11.0386 102.965 11.0386H103.022C104.383 11.0386 105.487 12.1424 105.487 13.5041C105.487 14.8657 104.383 15.9695 103.022 15.9695H102.965Z" fill="#90C5ED"/>
</g>
</svg>
