<svg preserveAspectRatio="none" width="100%" height="100%" overflow="visible" style="display: block;" viewBox="0 0 16 18" fill="none" xmlns="http://www.w3.org/2000/svg">
<g id="TikTok" clip-path="url(#clip0_1815_2336)">
<path id="Vector" d="M12.2168 3.335C11.5903 2.61957 11.245 1.70095 11.2451 0.75H8.41264V12.1167C8.39125 12.7319 8.1317 13.3148 7.68876 13.7424C7.24581 14.1699 6.65411 14.4087 6.03848 14.4083C4.73681 14.4083 3.65514 13.345 3.65514 12.025C3.65514 10.4483 5.17681 9.26583 6.74431 9.75167V6.855C3.58181 6.43333 0.813477 8.89 0.813477 12.025C0.813477 15.0775 3.34348 17.25 6.02931 17.25C8.90764 17.25 11.2451 14.9125 11.2451 12.025V6.25917C12.3937 7.08403 13.7727 7.52659 15.1868 7.52417V4.69167C15.1868 4.69167 13.4635 4.77417 12.2168 3.335Z" fill="var(--fill-0, #69493B)"/>
</g>
<defs>
<clipPath id="clip0_1815_2336">
<rect width="16" height="18" fill="white"/>
</clipPath>
</defs>
</svg>
