<svg preserveAspectRatio="none" width="100%" height="100%" overflow="visible" style="display: block;" viewBox="0 0 18 18" fill="none" xmlns="http://www.w3.org/2000/svg">
<g id="Instagram" clip-path="url(#clip0_1815_2333)">
<path id="Vector" d="M5.325 0.25H12.675C15.475 0.25 17.75 2.525 17.75 5.325V12.675C17.75 14.021 17.2153 15.3118 16.2636 16.2636C15.3118 17.2153 14.021 17.75 12.675 17.75H5.325C2.525 17.75 0.25 15.475 0.25 12.675V5.325C0.25 3.97903 0.784686 2.68818 1.73643 1.73643C2.68818 0.784686 3.97903 0.25 5.325 0.25ZM5.15 2C4.31457 2 3.51335 2.33187 2.92261 2.92261C2.33187 3.51335 2 4.31457 2 5.15V12.85C2 14.5912 3.40875 16 5.15 16H12.85C13.6854 16 14.4866 15.6681 15.0774 15.0774C15.6681 14.4866 16 13.6854 16 12.85V5.15C16 3.40875 14.5912 2 12.85 2H5.15ZM13.5938 3.3125C13.8838 3.3125 14.162 3.42773 14.3671 3.63285C14.5723 3.83797 14.6875 4.11617 14.6875 4.40625C14.6875 4.69633 14.5723 4.97453 14.3671 5.17965C14.162 5.38477 13.8838 5.5 13.5938 5.5C13.3037 5.5 13.0255 5.38477 12.8204 5.17965C12.6152 4.97453 12.5 4.69633 12.5 4.40625C12.5 4.11617 12.6152 3.83797 12.8204 3.63285C13.0255 3.42773 13.3037 3.3125 13.5938 3.3125ZM9 4.625C10.1603 4.625 11.2731 5.08594 12.0936 5.90641C12.9141 6.72688 13.375 7.83968 13.375 9C13.375 10.1603 12.9141 11.2731 12.0936 12.0936C11.2731 12.9141 10.1603 13.375 9 13.375C7.83968 13.375 6.72688 12.9141 5.90641 12.0936C5.08594 11.2731 4.625 10.1603 4.625 9C4.625 7.83968 5.08594 6.72688 5.90641 5.90641C6.72688 5.08594 7.83968 4.625 9 4.625ZM9 6.375C8.30381 6.375 7.63613 6.65156 7.14384 7.14384C6.65156 7.63613 6.375 8.30381 6.375 9C6.375 9.69619 6.65156 10.3639 7.14384 10.8562C7.63613 11.3484 8.30381 11.625 9 11.625C9.69619 11.625 10.3639 11.3484 10.8562 10.8562C11.3484 10.3639 11.625 9.69619 11.625 9C11.625 8.30381 11.3484 7.63613 10.8562 7.14384C10.3639 6.65156 9.69619 6.375 9 6.375Z" fill="var(--fill-0, #69493B)"/>
</g>
<defs>
<clipPath id="clip0_1815_2333">
<rect width="18" height="18" fill="white"/>
</clipPath>
</defs>
</svg>
