<svg preserveAspectRatio="none" width="100%" height="100%" overflow="visible" style="display: block;" viewBox="0 0 27.7171 27.716" fill="none" xmlns="http://www.w3.org/2000/svg">
<g id="Group">
<path id="Vector" d="M18.0182 12.473V12.4868M4.4001 8.83943C3.79229 8.37229 3.32548 7.74618 3.05126 7.03032C2.77703 6.31446 2.70608 5.53672 2.84624 4.78306C2.98639 4.02939 3.3322 3.32916 3.84544 2.75974C4.35868 2.19032 5.01937 1.77389 5.75448 1.55648C6.48959 1.33908 7.2705 1.32915 8.0109 1.52781C8.75129 1.72647 9.42235 2.12598 9.94989 2.68217C10.4774 3.23836 10.8409 3.92959 11.0002 4.67945C11.1594 5.42931 11.1083 6.2086 10.8523 6.9312" stroke="var(--stroke-0, #69493B)" stroke-width="2.77158" stroke-linecap="round" stroke-linejoin="round"/>
<path id="Vector_2" d="M19.4038 2.77179V8.04194C21.1188 9.03443 22.4245 10.6049 23.0872 12.4723H24.9455C25.3131 12.4723 25.6656 12.6183 25.9254 12.8782C26.1853 13.1381 26.3313 13.4906 26.3313 13.8581V16.6297C26.3313 16.9972 26.1853 17.3497 25.9254 17.6096C25.6656 17.8695 25.3131 18.0155 24.9455 18.0155H23.0858C22.6202 19.332 21.8289 20.5099 20.7882 21.4425V24.2515C20.7882 24.8028 20.5692 25.3315 20.1793 25.7214C19.7895 26.1112 19.2608 26.3302 18.7095 26.3302C18.1582 26.3302 17.6295 26.1112 17.2396 25.7214C16.8498 25.3315 16.6308 24.8028 16.6308 24.2515V23.4436C16.1729 23.5206 15.7093 23.559 15.245 23.5586H9.70186C9.23753 23.559 8.77398 23.5206 8.31608 23.4436V24.2515C8.31608 24.8028 8.09707 25.3315 7.70724 25.7214C7.31741 26.1112 6.78869 26.3302 6.23739 26.3302C5.68609 26.3302 5.15737 26.1112 4.76754 25.7214C4.37771 25.3315 4.15871 24.8028 4.15871 24.2515V21.4425C2.90313 20.32 2.01805 18.8426 1.62061 17.206C1.22318 15.5693 1.33213 13.8506 1.93305 12.2772C2.53397 10.7039 3.59852 9.35008 4.98579 8.39508C6.37307 7.44008 8.01765 6.92888 9.70186 6.92915H13.1663L19.4038 2.77179Z" stroke="var(--stroke-0, #69493B)" stroke-width="2.77158" stroke-linecap="round" stroke-linejoin="round"/>
</g>
</svg>
