<svg preserveAspectRatio="none" width="100%" height="100%" overflow="visible" style="display: block;" viewBox="0 0 30 30" fill="none" xmlns="http://www.w3.org/2000/svg">
<g id="mdi:face-man" clip-path="url(#clip0_1810_2316)">
<path id="Vector" d="M10.5 14.625C10.0027 14.625 9.52581 14.8225 9.17417 15.1742C8.82254 15.5258 8.625 16.0027 8.625 16.5C8.625 16.9973 8.82254 17.4742 9.17417 17.8258C9.52581 18.1775 10.0027 18.375 10.5 18.375C10.7462 18.375 10.99 18.3265 11.2175 18.2323C11.445 18.138 11.6517 17.9999 11.8258 17.8258C11.9999 17.6517 12.138 17.445 12.2323 17.2175C12.3265 16.99 12.375 16.7462 12.375 16.5C12.375 16.2538 12.3265 16.01 12.2323 15.7825C12.138 15.555 11.9999 15.3483 11.8258 15.1742C11.6517 15.0001 11.445 14.862 11.2175 14.7677C10.99 14.6735 10.7462 14.625 10.5 14.625ZM19.5 14.625C19.0027 14.625 18.5258 14.8225 18.1742 15.1742C17.8225 15.5258 17.625 16.0027 17.625 16.5C17.625 16.9973 17.8225 17.4742 18.1742 17.8258C18.5258 18.1775 19.0027 18.375 19.5 18.375C19.9973 18.375 20.4742 18.1775 20.8258 17.8258C21.1775 17.4742 21.375 16.9973 21.375 16.5C21.375 16.0027 21.1775 15.5258 20.8258 15.1742C20.4742 14.8225 19.9973 14.625 19.5 14.625ZM15 0C13.0302 0 11.0796 0.387987 9.25975 1.14181C7.43986 1.89563 5.78628 3.00052 4.3934 4.3934C1.58035 7.20644 0 11.0218 0 15C0 18.9782 1.58035 22.7936 4.3934 25.6066C5.78628 26.9995 7.43986 28.1044 9.25975 28.8582C11.0796 29.612 13.0302 30 15 30C18.9782 30 22.7936 28.4196 25.6066 25.6066C28.4196 22.7936 30 18.9782 30 15C30 13.0302 29.612 11.0796 28.8582 9.25975C28.1044 7.43986 26.9995 5.78628 25.6066 4.3934C24.2137 3.00052 22.5601 1.89563 20.7403 1.14181C18.9204 0.387987 16.9698 0 15 0ZM15 27C8.385 27 3 21.615 3 15C3 14.565 3 14.13 3.075 13.71C6.615 12.135 9.42 9.24 10.89 5.655C12.6043 8.08919 15.0062 9.95627 17.7881 11.0172C20.5699 12.0781 23.6051 12.2845 26.505 11.61C26.82 12.675 27 13.815 27 15C27 21.615 21.615 27 15 27Z" fill="var(--fill-0, #69493B)"/>
</g>
<defs>
<clipPath id="clip0_1810_2316">
<rect width="30" height="30" fill="white"/>
</clipPath>
</defs>
</svg>
