<svg preserveAspectRatio="none" width="100%" height="100%" overflow="visible" style="display: block;" viewBox="0 0 28 22.4" fill="none" xmlns="http://www.w3.org/2000/svg">
<g id="fa-solid:chalkboard-teacher" clip-path="url(#clip0_1810_2313)">
<path id="Vector" d="M9.10007 15.4008C8.99551 15.4008 8.89095 15.4161 8.7912 15.4485C8.2242 15.6327 7.62788 15.7508 7.00007 15.7508C6.37226 15.7508 5.77595 15.6327 5.20851 15.4485C5.10876 15.4161 5.00463 15.4008 4.90007 15.4008C2.18495 15.4008 -0.0143668 17.6093 7.06772e-05 20.3279C0.00619568 21.4768 0.950758 22.4008 2.10007 22.4008H11.9001C13.0494 22.4008 13.9939 21.4768 14.0001 20.3279C14.0145 17.6093 11.8152 15.4008 9.10007 15.4008ZM7.00007 14.0008C9.3197 14.0008 11.2001 12.1204 11.2001 9.80078C11.2001 7.48116 9.3197 5.60078 7.00007 5.60078C4.68045 5.60078 2.80007 7.48116 2.80007 9.80078C2.80007 12.1204 4.68045 14.0008 7.00007 14.0008ZM25.9001 0.000781279H9.10007C7.94201 0.000781279 7.00007 0.974219 7.00007 2.17034V4.20078C8.0247 4.20078 8.9732 4.49741 9.80007 4.97953V2.80078H25.2001V15.4008H22.4001V12.6008H16.8001V15.4008H13.4646C14.3002 16.131 14.9136 17.0952 15.201 18.2008H25.9001C27.0581 18.2008 28.0001 17.2273 28.0001 16.0312V2.17034C28.0001 0.974219 27.0581 0.000781279 25.9001 0.000781279Z" fill="var(--fill-0, #69493B)"/>
</g>
<defs>
<clipPath id="clip0_1810_2313">
<rect width="28" height="22.4" fill="white"/>
</clipPath>
</defs>
</svg>
